
<svg xmlns="http://www.w3.org/2000/svg" version="1.1" xmlns:xlink="http://www.w3.org/1999/xlink" preserveAspectRatio="none" x="0px" y="0px" width="134px" height="135px" viewBox="0 0 134 135">
<defs>
<g id="Layer0_0_MEMBER_0_FILL">
<path fill="#666666" stroke="none" d="
M 83.55 9.6
Q 83.55 9.4 83.55 9.3
L 83.55 9.15
Q 83.55 9.05 83.55 9
L 83.55 8.9
Q 83.2 0 74 0
L 9.55 0
Q 0 0 0 9.6
L 0 74.65
Q 0 84 8.85 84.3
L 8.95 84.3
Q 9 84.3 9.1 84.3
L 9.2 84.3
Q 9.35 84.3 9.55 84.3
L 74 84.3
Q 83.55 84.35 83.55 74.65
L 83.55 9.6
M 74 8.4
Q 74.45 8.4 74.75 8.6 74.7 8.85 74.7 9.15 74.7 10.2 75.15 11.1
L 75.15 74.65
Q 75.15 75.85 74 75.9
L 11.15 75.9
Q 10.2 75.4 9.1 75.4 8.85 75.4 8.6 75.45 8.4 75.15 8.4 74.65
L 8.4 9.6
Q 8.4 8.4 9.55 8.4
L 74 8.4 Z"/>
</g>

<g id="Layer0_0_MEMBER_1_FILL">
<path fill="#333333" stroke="none" d="
M 128.9 14.9
Q 128.9 14.5 128.9 14.2 128.55 6.15 120.1 6.15
L 14.45 6.15
Q 5.65 6.15 5.65 14.9
L 5.65 120.6
Q 5.65 129.05 13.7 129.35 14.05 129.35 14.45 129.35
L 120.1 129.35
Q 128.9 129.35 128.9 120.6
L 128.9 14.9 Z"/>
</g>

<g id="Layer0_0_MEMBER_2_FILL">
<path fill="#CCCC00" stroke="none" d="
M 52.95 55.35
Q 53.4 55.35 53.7 55.05 54.05 54.7 54.05 54.25 54.05 53.8 53.7 53.45 53.4 53.15 52.95 53.15
L 48.55 53.15
Q 47.85 53.15 47.05 53.65 46.25 54.15 45.9 54.85
L 43.3 59.75
Q 42.85 60.65 42.85 61.9 42.85 63 43.35 64.1
L 45.9 69.05
Q 46.25 69.65 47.1 70.15 47.9 70.65 48.7 70.65
L 52.85 70.65
Q 53.3 70.65 53.65 70.35 54 70 54 69.55 54 69.1 53.65 68.75 53.3 68.45 52.85 68.45
L 48.85 68.45
Q 48.1 68.45 47.8 67.75
L 45.45 63.25
Q 45.1 62.65 45.1 61.85 45.1 61.1 45.4 60.6
L 47.85 56
Q 48.2 55.35 48.7 55.35
L 52.95 55.35
M 69.9 53.45
Q 69.55 53.15 69.1 53.15
L 60.15 53.15
Q 59.7 53.15 59.4 53.45 59.05 53.8 59.05 54.25 59.05 54.7 59.4 55.05 59.7 55.35 60.15 55.35
L 63.55 55.35 63.55 68.45 60.15 68.45
Q 59.7 68.45 59.4 68.75 59.05 69.1 59.05 69.55 59.05 70 59.4 70.35 59.7 70.65 60.15 70.65
L 69.1 70.65
Q 69.55 70.65 69.9 70.35 70.25 70 70.25 69.55 70.25 69.1 69.9 68.75 69.6 68.45 69.1 68.45
L 65.8 68.45 65.8 55.35 69.1 55.35
Q 69.55 55.35 69.9 55.05 70.25 54.7 70.25 54.25 70.25 53.8 69.9 53.45
M 23.6 74.05
L 40.2 74.05 40.2 71.8 23.6 71.8 23.6 74.05 Z"/>
</g>

<g id="Layer0_0_MEMBER_3_FILL">
<path fill="#282828" stroke="none" d="
M 128.15 14.2
Q 128.55 14.2 128.9 14.2 128.55 6.15 120.1 6.15
L 14.45 6.15
Q 5.65 6.15 5.65 14.9
L 5.65 120.6
Q 5.65 129.05 13.7 129.35 13.7 129.05 13.7 128.65
L 13.7 22.95
Q 13.7 14.2 22.5 14.2
L 128.15 14.2 Z"/>
</g>

<path id="Layer0_0_1_STROKES" stroke="#666666" stroke-width="0.05" stroke-linejoin="round" stroke-linecap="round" fill="none" d="
M 96.95 85.7
L 111.4 85.7
Q 112.1 85.7 112.7 86.15 113.25 86.75 113.25 87.45 113.25 88.2 112.7 88.75 112.1 89.25 111.4 89.25
L 106.1 89.25 106.1 110.35 111.4 110.35
Q 112.2 110.35 112.7 110.85 113.25 111.4 113.25 112.1 113.25 112.85 112.7 113.4 112.1 113.9 111.4 113.9
L 96.95 113.9
Q 96.25 113.9 95.75 113.4 95.2 112.85 95.2 112.1 95.2 111.4 95.75 110.85 96.25 110.35 96.95 110.35
L 102.45 110.35 102.45 89.25 96.95 89.25
Q 96.25 89.25 95.75 88.75 95.2 88.2 95.2 87.45 95.2 86.75 95.75 86.15 96.25 85.7 96.95 85.7 Z
M 78.75 110.35
L 85.2 110.35
Q 85.95 110.35 86.5 110.85 87.05 111.4 87.05 112.1 87.05 112.85 86.5 113.4 85.95 113.9 85.2 113.9
L 78.5 113.9
Q 77.2 113.9 75.95 113.1 74.55 112.3 74 111.3
L 69.9 103.35
Q 69.1 101.55 69.1 99.8 69.1 97.75 69.8 96.3
L 74 88.4
Q 74.55 87.3 75.85 86.5 77.15 85.7 78.25 85.7
L 85.35 85.7
Q 86.1 85.7 86.55 86.15 87.15 86.75 87.15 87.45 87.15 88.2 86.55 88.75 86.1 89.25 85.35 89.25
L 78.5 89.25
Q 77.7 89.25 77.15 90.3
L 73.2 97.7
Q 72.7 98.5 72.7 99.7 72.7 101 73.25 101.95
L 77.05 109.2
Q 77.55 110.35 78.75 110.35 Z
M 64.8 119.4
L 38.05 119.4 38.05 115.75 64.8 115.75 64.8 119.4 Z"/>
</defs>

<g transform="matrix( 1, 0, 0, 1, 0,0) ">
<use xlink:href="#Layer0_0_1_STROKES"/>
</g>

<g transform="matrix( 1.6121063232421875, 0, 0, 1.6121063232421875, 0,0) ">
<use xlink:href="#Layer0_0_MEMBER_0_FILL"/>
</g>

<g transform="matrix( 1, 0, 0, 1, 0,0) ">
<use xlink:href="#Layer0_0_MEMBER_1_FILL"/>
</g>

<g transform="matrix( 1.6121063232421875, 0, 0, 1.6121063232421875, 0,0) ">
<use xlink:href="#Layer0_0_MEMBER_2_FILL"/>
</g>

<g transform="matrix( 1, 0, 0, 1, 0,0) ">
<use xlink:href="#Layer0_0_MEMBER_3_FILL"/>
</g>
</svg>
